HIERARCHY
ROOT Hips
{
	OFFSET 0.000000 0.000000 0.000000
	CHANNELS 6 Xposition Yposition Zposition Xrotation Yrotation Zrotation
	JOINT LeftUpLeg_virtual
	{
		OFFSET 0.000000 0.000000 0.000000
		CHANNELS 3 Xrotation Yrotation Zrotation
		JOINT LeftUpLeg
		{
			OFFSET 13.026900 -6.336304 -1.092800
			CHANNELS 3 Xrotation Yrotation Zrotation
			JOINT LeftLeg
			{
				OFFSET 0.524474 -46.096886 9.782700
				CHANNELS 3 Xrotation Yrotation Zrotation
				JOINT LeftFoot
				{
					OFFSET -0.524474 -53.427422 -12.948200
					CHANNELS 3 Xrotation Yrotation Zrotation
					JOINT LeftToeBase
					{
						OFFSET 0.192200 -14.009700 16.364100
						CHANNELS 3 Xrotation Yrotation Zrotation
						JOINT LeftToe_End
						{
							OFFSET -1.784700 -0.561700 9.474800
							CHANNELS 3 Xrotation Yrotation Zrotation
							End Site
							{
								OFFSET 0 0 0
							}
						}
					}
				}
			}
		}
	}
	JOINT RightUpLeg_virtual
	{
		OFFSET 0.000000 0.000000 0.000000
		CHANNELS 3 Xrotation Yrotation Zrotation
		JOINT RightUpLeg
		{
			OFFSET -12.883000 -6.336304 -1.092800
			CHANNELS 3 Xrotation Yrotation Zrotation
			JOINT RightLeg
			{
				OFFSET -0.524587 -46.096825 9.782800
				CHANNELS 3 Xrotation Yrotation Zrotation
				JOINT RightFoot
				{
					OFFSET 0.524587 -53.427383 -12.948300
					CHANNELS 3 Xrotation Yrotation Zrotation
					JOINT RightToeBase
					{
						OFFSET -0.192200 -14.009700 16.364100
						CHANNELS 3 Xrotation Yrotation Zrotation
						JOINT RightToe_End
						{
							OFFSET 1.784700 -0.561700 9.474800
							CHANNELS 3 Xrotation Yrotation Zrotation
							End Site
							{
								OFFSET 0 0 0
							}
						}
					}
				}
			}
		}
	}
	JOINT Spine_virtual
	{
		OFFSET 0.000000 0.000000 0.000000
		CHANNELS 3 Xrotation Yrotation Zrotation
		JOINT Spine
		{
			OFFSET 0.072000 7.257294 -0.789700
			CHANNELS 3 Xrotation Yrotation Zrotation
			JOINT Spine1
			{
				OFFSET 0.000000 12.508769 -0.658067
				CHANNELS 3 Xrotation Yrotation Zrotation
				JOINT Spine1_split
				{
					OFFSET 0.000000 12.508769 -0.658067
					CHANNELS 3 Xrotation Yrotation Zrotation
					JOINT Spine2
					{
						OFFSET 0.000000 12.508769 -0.658067
						CHANNELS 3 Xrotation Yrotation Zrotation
						JOINT Neck_virtual
						{
							OFFSET 0.000000 0.000000 0.000000
							CHANNELS 3 Xrotation Yrotation Zrotation
							JOINT Neck
							{
								OFFSET 0.000000 14.033295 7.520400
								CHANNELS 3 Xrotation Yrotation Zrotation
								JOINT Head
								{
									OFFSET 0.000000 8.198502 5.703100
									CHANNELS 3 Xrotation Yrotation Zrotation
									JOINT HeadTop_End
									{
										OFFSET 0.000000 17.760803 13.332701
										CHANNELS 3 Xrotation Yrotation Zrotation
										End Site
										{
											OFFSET 0 0 0
										}
									}
								}
							}
						}
						JOINT LeftShoulder_virtual
						{
							OFFSET 0.000000 0.000000 0.000000
							CHANNELS 3 Xrotation Yrotation Zrotation
							JOINT LeftShoulder
							{
								OFFSET 6.292450 5.785301 -0.669000
								CHANNELS 3 Xrotation Yrotation Zrotation
								JOINT LeftShoulder_split
								{
									OFFSET 6.292450 5.785301 -0.669000
									CHANNELS 3 Xrotation Yrotation Zrotation
									JOINT LeftArm
									{
										OFFSET 13.907140 -6.093903 1.965100
										CHANNELS 3 Xrotation Yrotation Zrotation
										JOINT LeftForeArm
										{
											OFFSET 34.140198 0.000000 0.000000
											CHANNELS 3 Xrotation Yrotation Zrotation
											JOINT LeftHand
											{
												OFFSET 40.960209 0.000000 0.000000
												CHANNELS 3 Xrotation Yrotation Zrotation
												End Site
												{
													OFFSET 0 0 0
												}
											}
										}
									}
								}
							}
						}
						JOINT RightShoulder_virtual
						{
							OFFSET 0.000000 0.000000 0.000000
							CHANNELS 3 Xrotation Yrotation Zrotation
							JOINT RightShoulder
							{
								OFFSET -6.292450 5.785301 -0.669000
								CHANNELS 3 Xrotation Yrotation Zrotation
								JOINT RightShoulder_split
								{
									OFFSET -6.292450 5.785301 -0.669000
									CHANNELS 3 Xrotation Yrotation Zrotation
									JOINT RightArm
									{
										OFFSET -13.907140 -6.093903 1.965100
										CHANNELS 3 Xrotation Yrotation Zrotation
										JOINT RightForeArm
										{
											OFFSET -34.140198 0.000000 0.000000
											CHANNELS 3 Xrotation Yrotation Zrotation
											JOINT RightHand
											{
												OFFSET -40.960209 0.000000 0.000000
												CHANNELS 3 Xrotation Yrotation Zrotation
												End Site
												{
													OFFSET 0 0 0
												}
											}
										}
									}
								}
							}
						}
					}
				}
			}
		}
	}
}
MOTION
Frames: 4
Frame Time: 0.03333333
-1.126998 103.053047 0.693115 0.000000 0.000000 0.000000 14.701584 -57.389292 13.507934 -43.643655 10.544970 26.455228 40.527023 -7.919893 -6.144576 0.241409 -2.757867 -3.467116 0.621761 -0.075267 -0.351804 0.000000 0.000000 0.000000 15.690124 -57.879016 14.399068 -31.624206 -7.893802 -19.094200 46.063817 5.786704 -0.797733 -22.970286 -5.401252 10.780405 4.722193 0.286990 0.969728 0.000000 0.000000 0.000000 16.230290 -60.109715 14.074789 5.629795 1.263905 -3.290092 -4.394629 5.214563 -3.819845 0.857307 -2.315432 0.497713 0.000000 0.000000 0.000000 -2.506704 4.752713 -3.256573 -15.412655 7.857423 8.345176 3.519849 34.563646 2.172052 0.000000 0.000000 0.000000 -3.076692 5.121333 -3.743506 -29.516014 6.389339 6.322497 -7.239512 6.179635 -6.953575 32.879523 -10.249165 -42.400872 -24.328982 -85.696157 -24.482128 0.000000 0.000000 0.000000 -3.685616 4.389613 -3.690187 1.887702 16.415415 11.283560 -5.371590 0.754187 -1.153493 12.961150 17.321179 58.946213 5.979476 66.983583 -8.334596 0.000000 0.000000 0.000000 
-1.076488 103.082596 0.941105 0.000000 0.000000 0.000000 14.708010 -57.203760 13.412881 -43.809469 11.113705 26.702092 40.071467 -7.683621 -6.413989 0.027162 -2.869187 -3.322797 0.678484 -0.096042 -0.315680 0.000000 0.000000 0.000000 15.857292 -58.044717 14.397031 -31.341945 -7.859980 -19.002858 46.149092 5.772134 -0.795557 -23.241669 -5.474984 10.422863 4.922061 0.265266 1.020054 0.000000 0.000000 0.000000 16.582960 -60.166604 14.309953 5.645860 1.311264 -3.392415 -4.373184 5.227319 -3.886832 1.108666 -2.172831 0.446206 0.000000 0.000000 0.000000 -2.344212 4.818504 -3.364377 -14.870080 8.533597 8.090270 3.286205 34.431161 2.426121 0.000000 0.000000 0.000000 -2.777208 5.135844 -3.751376 -29.497077 5.866835 6.321243 -6.859541 5.202739 -6.462950 33.121028 -11.442436 -42.689031 -22.159907 -84.941271 -22.023882 0.000000 0.000000 0.000000 -3.545991 4.386068 -3.771444 1.932533 16.300405 11.618777 -6.074613 1.181884 -0.690547 13.780234 17.003763 58.789276 5.242516 66.867333 -7.612727 0.000000 0.000000 0.000000 
-1.022224 103.149185 1.047054 0.000000 0.000000 0.000000 14.710236 -57.335121 13.256514 -43.620303 11.830993 27.008381 39.253575 -7.410392 -6.649746 -0.273761 -2.884795 -3.195710 0.855789 -0.131065 -0.353260 0.000000 0.000000 0.000000 15.890836 -58.200841 14.217291 -30.931147 -7.999061 -18.776637 46.161366 5.781213 -0.815242 -23.672894 -5.643506 10.069620 4.754775 0.225634 1.080289 0.000000 0.000000 0.000000 16.536530 -60.031619 14.248826 5.790903 1.398369 -3.492969 -4.347946 5.386017 -4.036869 1.186416 -2.037841 0.519750 0.000000 0.000000 0.000000 -2.245196 5.006496 -3.604273 -14.415188 9.277011 7.828738 2.770108 34.276761 2.879401 0.000000 0.000000 0.000000 -2.573831 5.340287 -3.856678 -29.460993 4.813097 6.019293 -6.179229 4.169186 -6.050356 33.450370 -12.901258 -42.731842 -16.128937 -82.864880 -15.695655 0.000000 0.000000 0.000000 -3.260045 4.515348 -3.977283 1.931051 15.911578 11.961892 -6.251223 1.350394 -0.646033 14.859724 17.711512 57.985000 4.056264 67.031470 -6.704821 0.000000 0.000000 0.000000 
-0.968723 103.205864 0.963470 0.000000 0.000000 0.000000 14.655663 -57.599702 13.036571 -43.200345 12.490633 27.288090 38.475770 -7.198819 -6.813233 -0.593907 -2.837866 -3.109590 1.139807 -0.175068 -0.463673 0.000000 0.000000 0.000000 15.792820 -58.302119 13.945557 -30.544835 -8.228422 -18.547946 45.917504 5.830261 -0.844342 -24.159721 -5.849204 9.840792 4.312219 0.171065 1.138205 0.000000 0.000000 0.000000 16.193789 -59.649271 13.964734 6.030189 1.439250 -3.531731 -4.306954 5.643303 -4.203797 0.937320 -1.855451 0.612974 0.000000 0.000000 0.000000 -2.224791 5.243163 -3.859572 -14.175230 10.111475 7.580324 2.227179 34.236453 3.210883 0.000000 0.000000 0.000000 -2.433818 5.632870 -4.008524 -29.402612 3.465724 5.467715 -5.697017 3.369880 -5.981116 33.652813 -14.290015 -42.770132 -11.319818 -79.684224 -10.557732 0.000000 0.000000 0.000000 -2.859731 4.736217 -4.232237 1.903209 15.350655 12.255220 -6.150403 1.278958 -0.834772 16.208923 19.186013 56.418828 2.590403 67.394815 -5.774571 0.000000 0.000000 0.000000 
